<svg xmlns="http://www.w3.org/2000/svg" viewBox="0 0 30.93 35.54"><defs><style>.cls-1{fill:#f8ad49;}.cls-2{fill:#544898;}.cls-3{fill:#47bfe2;}</style></defs><g id="Layer_2" data-name="Layer 2"><g id="Layer_3" data-name="Layer 3"><rect class="cls-1" width="30.93" height="7.27" rx="3.64"/><path class="cls-2" d="M27.29,7.27H17.08a3.09,3.09,0,0,0-1.53-1.61,4,4,0,0,0-1.94-.11,17.52,17.52,0,0,1-1.84.28,3,3,0,0,1-2.22-1,5.68,5.68,0,0,1-.44-1.39,3.61,3.61,0,0,1-.22-1.84A2,2,0,0,1,9.78.44a2.74,2.74,0,0,1,2.05,0A8.58,8.58,0,0,0,17.08,0H27.29a3.64,3.64,0,0,1,3.64,3.64h0A3.63,3.63,0,0,1,27.29,7.27Z"/><rect class="cls-3" y="10.65" width="30.93" height="7.27" rx="3.64"/><path class="cls-3" d="M21.07,14.28a3.65,3.65,0,0,1-3.64,3.64H3.63a3.64,3.64,0,0,1,0-7.28h13.8A3.64,3.64,0,0,1,21.07,14.28Z"/><path class="cls-3" d="M7.27,17.92v14a3.63,3.63,0,0,1-6.21,2.57A3.6,3.6,0,0,1,0,31.89V14.28a3.63,3.63,0,0,0,3.63,3.64Z"/><rect class="cls-1" y="28.26" width="7.27" height="7.27" rx="3.64"/><path class="cls-2" d="M27.29,17.92H17.08a3.06,3.06,0,0,0-1.53-1.61,4,4,0,0,0-1.94-.11,17.52,17.52,0,0,1-1.84.28,3,3,0,0,1-2.22-1.06A5.37,5.37,0,0,1,9.11,14a3.57,3.57,0,0,1-.22-1.83,2,2,0,0,1,.89-1.11,2.69,2.69,0,0,1,2.05,0,8.58,8.58,0,0,0,5.25-.44H27.29a3.64,3.64,0,0,1,3.64,3.63h0A3.64,3.64,0,0,1,27.29,17.92Z"/></g></g></svg>