<?xml version="1.0" encoding="utf-8"?>
<!-- Generator: Adobe Illustrator 24.1.1, SVG Export Plug-In . SVG Version: 6.00 Build 0)  -->
<svg version="1.1" xmlns="http://www.w3.org/2000/svg" xmlns:xlink="http://www.w3.org/1999/xlink" x="0px" y="0px"
	 viewBox="0 0 50 50" style="enable-background:new 0 0 50 50;" xml:space="preserve">
<style type="text/css">
	.st0{fill:#F8AD49;}
	.st1{fill:#544898;}
	.st2{fill:#47BFE2;}
</style>
<g id="Layer_1">
</g>
<g id="Layer_2">
</g>
<g id="Layer_3">
	<g>
		<path class="st0" d="M37.2,14.9H13.6c-2,0-3.6-1.6-3.6-3.6v0c0-2,1.6-3.6,3.6-3.6h23.7c2,0,3.6,1.6,3.6,3.6v0
			C40.9,13.2,39.2,14.9,37.2,14.9z"/>
		<path class="st1" d="M37.2,14.9H27c-0.2-0.5-0.7-1.3-1.5-1.6c-0.6-0.2-1.1-0.2-1.9-0.1c-1.1,0.1-1.1,0.3-1.8,0.3
			c-0.2,0-1.5-0.1-2.2-1.1c-0.1-0.2-0.2-0.6-0.4-1.4c-0.2-0.9-0.4-1.4-0.2-1.8c0-0.1,0.2-0.8,0.9-1.1c0.8-0.4,1.7-0.1,2.1,0
			c1,0.3,2.7,0.4,5.2-0.4c3.4,0,6.8,0,10.2,0c2,0,3.6,1.6,3.6,3.6v0C40.9,13.2,39.2,14.9,37.2,14.9z"/>
		<path class="st2" d="M37.2,25.5H13.6c-2,0-3.6-1.6-3.6-3.6v0c0-2,1.6-3.6,3.6-3.6h23.7c2,0,3.6,1.6,3.6,3.6v0
			C40.9,23.9,39.2,25.5,37.2,25.5z"/>
		<path class="st2" d="M31,21.9c0,1-0.4,1.9-1.1,2.6c-0.7,0.7-1.6,1.1-2.6,1.1H13.6c-2,0-3.6-1.6-3.6-3.6s1.6-3.6,3.6-3.6h13.8
			C29.4,18.2,31,19.9,31,21.9z"/>
		<path class="st2" d="M17.2,25.5v14c0,2-1.6,3.6-3.6,3.6c-1,0-1.9-0.4-2.6-1.1c-0.7-0.7-1.1-1.6-1.1-2.6V21.9c0,2,1.6,3.6,3.6,3.6
			H17.2z"/>
		<path class="st0" d="M13.6,43.1L13.6,43.1c-2,0-3.6-1.6-3.6-3.6v0c0-2,1.6-3.6,3.6-3.6h0c2,0,3.6,1.6,3.6,3.6v0
			C17.2,41.5,15.6,43.1,13.6,43.1z"/>
		<path class="st1" d="M37.2,25.5H27c-0.2-0.5-0.7-1.3-1.5-1.6c-0.6-0.2-1.1-0.2-1.9-0.1c-1.1,0.1-1.1,0.3-1.8,0.3
			c-0.2,0-1.5-0.1-2.2-1.1c-0.1-0.2-0.2-0.6-0.4-1.4c-0.2-0.9-0.4-1.4-0.2-1.8c0-0.1,0.2-0.8,0.9-1.1c0.8-0.4,1.7-0.1,2.1,0
			c1,0.3,2.7,0.4,5.2-0.4c3.4,0,6.8,0,10.2,0c2,0,3.6,1.6,3.6,3.6v0C40.9,23.9,39.2,25.5,37.2,25.5z"/>
	</g>
</g>
</svg>
