<?xml version="1.0" encoding="utf-8"?>
<!-- Generator: Adobe Illustrator 24.1.1, SVG Export Plug-In . SVG Version: 6.00 Build 0)  -->
<svg version="1.1" id="Layer_1" xmlns="http://www.w3.org/2000/svg" xmlns:xlink="http://www.w3.org/1999/xlink" x="0px" y="0px"
	 viewBox="0 0 130 50" style="enable-background:new 0 0 130 50;" xml:space="preserve">
<style type="text/css">
	.st0{fill:#F8AD49;}
	.st1{fill:#47BFE2;}
	.st2{fill:#544898;}
</style>
<path class="st0" d="M38.4,11.8H9.1c-2.5,0-4.5-2-4.5-4.5l0,0c0-2.5,2-4.5,4.5-4.5h29.3c2.5,0,4.5,2,4.5,4.5l0,0
	C42.9,9.8,40.9,11.8,38.4,11.8z"/>
<path class="st0" d="M38.4,11.8H25.7c-0.3-0.6-0.9-1.6-1.9-2c-0.7-0.3-1.4-0.2-2.4-0.1C20.1,9.8,20,10,19.2,10
	c-0.3,0-1.9-0.1-2.8-1.3C16.2,8.4,16.1,8,15.8,7c-0.3-1.2-0.4-1.7-0.3-2.3c0-0.1,0.3-0.9,1.1-1.4c1-0.5,2.1-0.1,2.5,0
	c1.3,0.4,3.3,0.5,6.5-0.6c4.2,0,8.4,0,12.7,0c2.5,0,4.5,2,4.5,4.5l0,0C42.9,9.8,40.9,11.8,38.4,11.8z"/>
<path class="st1" d="M38.4,25H9.1c-2.5,0-4.5-2-4.5-4.5l0,0c0-2.5,2-4.5,4.5-4.5h29.3c2.5,0,4.5,2,4.5,4.5l0,0
	C42.9,23,40.9,25,38.4,25z"/>
<path class="st2" d="M30.7,20.5c0,1.2-0.5,2.4-1.3,3.2c-0.8,0.8-1.9,1.3-3.2,1.3H9.1c-2.5,0-4.5-2-4.5-4.5s2-4.5,4.5-4.5h17.1
	C28.7,16,30.7,18,30.7,20.5z"/>
<path class="st2" d="M13.6,25v17.3c0,2.5-2,4.5-4.5,4.5c-1.3,0-2.4-0.5-3.2-1.3s-1.3-1.9-1.3-3.2V20.5c0,2.5,2,4.5,4.5,4.5H13.6z"/>
<path class="st0" d="M10,46.8H8.2c-2,0-3.6-1.6-3.6-3.6v-1.7c0-2,1.6-3.6,3.6-3.6H10c2,0,3.6,1.6,3.6,3.6v1.7
	C13.6,45.2,12,46.8,10,46.8z"/>
<path class="st2" d="M38.4,25H25.7c-0.3-0.6-0.9-1.6-1.9-2c-0.7-0.3-1.4-0.2-2.4-0.1C20,23,20,23.3,19.1,23.2
	c-0.3,0-1.9-0.1-2.8-1.3c-0.2-0.3-0.3-0.7-0.6-1.7c-0.3-1.2-0.4-1.7-0.3-2.3c0-0.1,0.3-0.9,1.1-1.4c1-0.5,2.1-0.1,2.5,0
	c1.3,0.4,3.3,0.5,6.5-0.6c4.2,0,8.4,0,12.7,0c2.5,0,4.5,2,4.5,4.5l0,0C42.9,23,40.9,25,38.4,25z"/>
<g>
	<path class="st2" d="M62.8,21.2c0,2.5-0.7,4.4-2.2,5.9c-1.4,1.5-3.4,2.2-5.8,2.2c-2,0-3.6-0.7-4.7-2.1s-1.7-3.3-1.7-5.7
		c0-2.6,0.7-4.5,2.1-6c1.3-1.4,3.2-2.1,5.6-2.1c2,0,3.6,0.7,4.9,2.1S62.8,18.9,62.8,21.2z M60.3,21.3c0-1.7-0.4-3-1.2-4
		s-1.9-1.4-3.4-1.4c-3.2,0-4.8,1.9-4.8,5.7c0,1.8,0.3,3.1,1,4.1s1.7,1.4,3,1.4c1.7,0,3-0.5,3.9-1.5C59.8,24.5,60.3,23.1,60.3,21.3z"
		/>
	<path class="st2" d="M85.6,22.3c0,3.6-1,6.3-2.9,8.3s-4.6,3-8,3c-3,0-5.4-1-7.3-3.1c-1.9-2-2.8-4.7-2.8-8.1c0-3.6,0.8-6.5,2.5-8.7
		c1.8-2.4,4.3-3.6,7.7-3.6c3.4,0,6,1.1,7.9,3.2C84.6,15.5,85.6,18.5,85.6,22.3z M82.9,22.4c0-3.1-0.7-5.5-2.1-7.1s-3.4-2.5-6-2.5
		c-2.5,0-4.3,0.8-5.6,2.4c-1.3,1.6-1.9,4-1.9,7c0,2.7,0.7,4.9,2.1,6.5s3.3,2.4,5.5,2.4c2.4,0,4.3-0.8,5.8-2.3
		C82.2,27.3,82.9,25.1,82.9,22.4z"/>
	<path class="st2" d="M109.2,21.3c0,7.7-5,11.6-15,11.6c-0.9,0-1.7,0-2.6-0.1c-0.2,0.7-0.6,1.1-1.2,1.1c-0.3,0-0.6-0.1-0.9-0.3
		c-0.2-0.2-0.3-0.4-0.3-0.7c0,0.2,0.1-0.8,0.4-3c0.3-2.1,0.4-4.4,0.4-6.7c0-3.3-0.2-6.4-0.6-9.5c-0.8-0.2-1.1-0.6-1.1-1.3
		c0-0.5,0.3-0.9,0.8-1.1v-0.2V11v-0.1c0-0.7,0.4-1.1,1.3-1.1c0.7,0,1.1,0.3,1.2,0.9c1.8-0.3,3.4-0.5,4.9-0.5c4.1,0,7.3,0.9,9.5,2.8
		S109.2,17.8,109.2,21.3z M106.5,21.4c0-2.8-0.9-4.9-2.6-6.4s-4.3-2.2-7.6-2.2c-1.2,0-2.7,0.2-4.5,0.5c0.4,3.3,0.6,6.6,0.6,9.9
		c0,2.4-0.2,4.8-0.5,7.1c0.4,0,0.9,0,1.7,0c3.8,0,6.6-0.4,8.4-1.2C105,27.8,106.5,25.2,106.5,21.4z"/>
</g>
</svg>
