<?xml version="1.0" encoding="utf-8"?>
<!-- Generator: Adobe Illustrator 24.1.1, SVG Export Plug-In . SVG Version: 6.00 Build 0)  -->
<svg version="1.1" xmlns="http://www.w3.org/2000/svg" xmlns:xlink="http://www.w3.org/1999/xlink" x="0px" y="0px"
	 viewBox="0 0 255 170" style="enable-background:new 0 0 255 170;" xml:space="preserve">
<style type="text/css">
	.st0{fill:#F7F8FC;}
	.st1{fill:#F8AE49;}
	.st2{fill:#4BC0E2;}
	.st3{fill:#554998;}
</style>
<g id="Layer_2">
	<rect class="st0" width="255" height="170"/>
</g>
<g id="Layer_1">
	<g>
		<path class="st1" d="M101.8,70.3H72.5c-2.5,0-4.5-2-4.5-4.5l0,0c0-2.5,2-4.5,4.5-4.5h29.3c2.5,0,4.5,2,4.5,4.5l0,0
			C106.3,68.3,104.3,70.3,101.8,70.3z"/>
		<path class="st1" d="M101.8,70.3H89.1c-0.3-0.6-0.9-1.6-1.9-2c-0.7-0.3-1.4-0.2-2.4-0.1c-1.3,0.1-1.4,0.3-2.2,0.3
			c-0.3,0-1.9-0.1-2.8-1.3c-0.2-0.3-0.3-0.7-0.6-1.7c-0.3-1.2-0.4-1.7-0.3-2.3c0-0.1,0.3-0.9,1.1-1.4c1-0.5,2.1-0.1,2.5,0
			c1.3,0.4,3.3,0.5,6.5-0.6c4.2,0,8.4,0,12.7,0c2.5,0,4.5,2,4.5,4.5l0,0C106.3,68.3,104.3,70.3,101.8,70.3z"/>
		<path class="st2" d="M101.8,83.5H72.5c-2.5,0-4.5-2-4.5-4.5l0,0c0-2.5,2-4.5,4.5-4.5h29.3c2.5,0,4.5,2,4.5,4.5l0,0
			C106.3,81.5,104.3,83.5,101.8,83.5z"/>
		<path class="st3" d="M94.1,79c0,1.2-0.5,2.4-1.3,3.2c-0.8,0.8-1.9,1.3-3.2,1.3H72.5c-2.5,0-4.5-2-4.5-4.5s2-4.5,4.5-4.5h17.1
			C92.1,74.5,94.1,76.5,94.1,79z"/>
		<path class="st3" d="M77,83.5v17.3c0,2.5-2,4.5-4.5,4.5c-1.3,0-2.4-0.5-3.2-1.3c-0.8-0.8-1.3-1.9-1.3-3.2V79c0,2.5,2,4.5,4.5,4.5
			H77z"/>
		<path class="st1" d="M73.4,105.3h-1.8c-2,0-3.6-1.6-3.6-3.6V100c0-2,1.6-3.6,3.6-3.6h1.8c2,0,3.6,1.6,3.6,3.6v1.7
			C77,103.7,75.4,105.3,73.4,105.3z"/>
		<path class="st3" d="M101.8,83.5H89.1c-0.3-0.6-0.9-1.6-1.9-2c-0.7-0.3-1.4-0.2-2.4-0.1c-1.4,0.1-1.4,0.4-2.3,0.3
			c-0.3,0-1.9-0.1-2.8-1.3c-0.2-0.3-0.3-0.7-0.6-1.7c-0.3-1.2-0.4-1.7-0.3-2.3c0-0.1,0.3-0.9,1.1-1.4c1-0.5,2.1-0.1,2.5,0
			c1.3,0.4,3.3,0.5,6.5-0.6c4.2,0,8.4,0,12.7,0c2.5,0,4.5,2,4.5,4.5l0,0C106.3,81.5,104.3,83.5,101.8,83.5z"/>
		<g>
			<path class="st3" d="M126.2,79.7c0,2.5-0.7,4.4-2.2,5.9c-1.4,1.5-3.4,2.2-5.8,2.2c-2,0-3.6-0.7-4.7-2.1c-1.1-1.4-1.7-3.3-1.7-5.7
				c0-2.6,0.7-4.5,2.1-6c1.3-1.4,3.2-2.1,5.6-2.1c2,0,3.6,0.7,4.9,2.1S126.2,77.4,126.2,79.7z M123.7,79.8c0-1.7-0.4-3-1.2-4
				c-0.8-1-1.9-1.4-3.4-1.4c-3.2,0-4.8,1.9-4.8,5.7c0,1.8,0.3,3.1,1,4.1c0.7,1,1.7,1.4,3,1.4c1.7,0,3-0.5,3.9-1.5
				C123.2,83,123.7,81.6,123.7,79.8z"/>
			<path class="st3" d="M149,80.8c0,3.6-1,6.3-2.9,8.3c-1.9,2-4.6,3-8,3c-3,0-5.4-1-7.3-3.1c-1.9-2-2.8-4.7-2.8-8.1
				c0-3.6,0.8-6.5,2.5-8.7c1.8-2.4,4.3-3.6,7.7-3.6c3.4,0,6,1.1,7.9,3.2C148,74,149,77,149,80.8z M146.3,80.9c0-3.1-0.7-5.5-2.1-7.1
				c-1.4-1.6-3.4-2.5-6-2.5c-2.5,0-4.3,0.8-5.6,2.4c-1.3,1.6-1.9,4-1.9,7c0,2.7,0.7,4.9,2.1,6.5c1.4,1.6,3.3,2.4,5.5,2.4
				c2.4,0,4.3-0.8,5.8-2.3C145.6,85.8,146.3,83.6,146.3,80.9z"/>
			<path class="st3" d="M172.6,79.8c0,7.7-5,11.6-15,11.6c-0.9,0-1.7,0-2.6-0.1c-0.2,0.7-0.6,1.1-1.2,1.1c-0.3,0-0.6-0.1-0.9-0.3
				c-0.2-0.2-0.3-0.4-0.3-0.7c0,0.2,0.1-0.8,0.4-3c0.3-2.1,0.4-4.4,0.4-6.7c0-3.3-0.2-6.4-0.6-9.5c-0.8-0.2-1.1-0.6-1.1-1.3
				c0-0.5,0.3-0.9,0.8-1.1v-0.2v-0.1v-0.1c0-0.7,0.4-1.1,1.3-1.1c0.7,0,1.1,0.3,1.2,0.9c1.8-0.3,3.4-0.5,4.9-0.5
				c4.1,0,7.3,0.9,9.5,2.8S172.6,76.3,172.6,79.8z M169.9,79.9c0-2.8-0.9-4.9-2.6-6.4s-4.3-2.2-7.6-2.2c-1.2,0-2.7,0.2-4.5,0.5
				c0.4,3.3,0.6,6.6,0.6,9.9c0,2.4-0.2,4.8-0.5,7.1c0.4,0,0.9,0,1.7,0c3.8,0,6.6-0.4,8.4-1.2C168.4,86.3,169.9,83.7,169.9,79.9z"/>
		</g>
	</g>
</g>
</svg>
