<?xml version="1.0" standalone="no"?>
<svg
  width="600"
  height="600"
  viewBox="0 0 600 600"
  xmlns="http://www.w3.org/2000/svg"
>
  <g transform="translate(300,300)">
    <path d="M70,-132.9C75.4,-105.4,54.1,-60.2,64.4,-31.3C74.6,-2.4,116.5,10.2,112.4,13.9C108.4,17.6,58.3,12.4,34.6,17.6C10.8,22.7,13.3,38.2,-0.1,78C-13.5,117.7,-42.8,181.7,-72.9,196.5C-103,211.3,-133.9,177,-159.1,141.5C-184.4,105.9,-204.1,69,-181,43.2C-157.9,17.4,-92.2,2.7,-75,-33.9C-57.8,-70.6,-89.2,-129.1,-84.8,-157.1C-80.4,-185.1,-40.2,-182.5,-4,-176.4C32.3,-170.2,64.5,-160.4,70,-132.9Z" fill="#ff6900" />
  </g>
</svg>
  