<?xml version="1.0" encoding="utf-8"?>
<!-- Generator: Adobe Illustrator 24.1.1, SVG Export Plug-In . SVG Version: 6.00 Build 0)  -->
<svg version="1.1" id="Layer_1" xmlns="http://www.w3.org/2000/svg" xmlns:xlink="http://www.w3.org/1999/xlink" x="0px" y="0px"
	 viewBox="0 0 600 600" style="enable-background:new 0 0 600 600;" xml:space="preserve">
<style type="text/css">
	.st0{opacity:9.000000e-02;}
	.st1{fill:#FFFFFF;}
</style>
<g transform="translate(300,300)" class="st0">
	<path class="st1" d="M47.5-38.4C107.1,4.6,222.6-28,267.4-21.6c44.6,6.5,18.6,52-37,72.5c-55.7,20.6-141,16.3-175.1,40.4
		c-33.9,24.3-16.7,77.1-42.3,124.4c-25.7,47.3-94.4,88.9-128.5,72.8c-34.3-16.1-34.1-90.2-12.3-139.8C-106.1,99.1-63,74-82.5,48.8
		c-19.7-25.1-102.1-50.3-154-104.5c-51.9-54-73-136.9-31.8-185.5s144.8-63,198.6-10.8C-15.9-200-12.2-81.3,47.5-38.4z"/>
</g>
</svg>
