<?xml version="1.0" standalone="no"?>
<svg
  width="600"
  height="600"
  viewBox="0 0 600 600"
  xmlns="http://www.w3.org/2000/svg"
>
  <g transform="translate(300,300)">
    <path d="M32.1,-62.3C60.6,-31.6,115.8,-54.9,137.2,-50.3C158.5,-45.7,146.1,-13.2,119.5,1.4C92.9,16.1,52.1,13,35.8,30.2C19.6,47.5,27.8,85.2,15.6,118.9C3.3,152.6,-29.5,182.3,-45.8,170.8C-62.2,159.3,-62.1,106.5,-51.7,71.1C-41.3,35.8,-20.7,17.9,-30,-0.1C-39.4,-18,-78.8,-36,-103.6,-74.6C-128.4,-113.1,-138.5,-172.2,-118.8,-206.9C-99.1,-241.6,-49.6,-251.8,-23.9,-214.6C1.8,-177.5,3.6,-92.9,32.1,-62.3Z" fill="#ff6900" />
  </g>
</svg>
  