<?xml version="1.0" standalone="no"?>
<svg
  width="600"
  height="600"
  viewBox="0 0 600 600"
  xmlns="http://www.w3.org/2000/svg"
>
  <g transform="translate(300,300)">
    <path d="M113.5,-188.8C132.6,-164.4,123.6,-108.4,139.8,-65.9C155.9,-23.5,197.2,5.4,207.6,39.7C218,73.9,197.4,113.6,163.9,129.3C130.5,145,84.1,136.8,51.2,123.1C18.2,109.4,-1.3,90.2,-10.9,71.6C-20.4,53,-20,35,-40.3,26.6C-60.6,18.2,-101.6,19.3,-120.6,6.3C-139.6,-6.7,-136.7,-33.9,-123.9,-54.4C-111.1,-74.9,-88.5,-88.8,-66.3,-111.8C-44,-134.8,-22,-166.9,12.6,-186.5C47.2,-206.1,94.4,-213.3,113.5,-188.8Z" fill="#eb144c" />
  </g>
</svg>
  