<?xml version="1.0" encoding="utf-8"?>
<!-- Generator: Adobe Illustrator 24.1.1, SVG Export Plug-In . SVG Version: 6.00 Build 0)  -->
<svg version="1.1" id="Layer_1" xmlns="http://www.w3.org/2000/svg" xmlns:xlink="http://www.w3.org/1999/xlink" x="0px" y="0px"
	 viewBox="0 0 600 600" style="enable-background:new 0 0 600 600;" xml:space="preserve">
<style type="text/css">
	.st0{opacity:9.000000e-02;}
	.st1{fill:#FFFFFF;}
</style>
<g transform="translate(300,300)" class="st0">
	<image style="overflow:visible;" width="633" height="633" xlink:href="14184483.png"  transform="matrix(1 0 0 1 -316.5 -316.5)">
	</image>
	<g>
		<g>
			<path class="st1" d="M128.1-265.9c32.4,41.7,17.2,137.4,44.7,210.1c27.3,72.5,97.5,121.9,115.1,180.5
				c17.7,58.5-17.3,126.3-74.2,153.2C157,304.7,78.2,290.7,22.3,267.3c-56-23.4-89.2-56.2-105.5-88c-16.1-31.8-15.5-62.6-49.9-76.9
				s-104.1-12.5-136.4-34.7s-27.3-68.7-5.6-103.8c21.7-35,60.1-58.8,97.8-98.1c37.9-39.3,75.2-94.2,134-127.7
				S95.7-307.8,128.1-265.9z"/>
		</g>
	</g>
</g>
</svg>
