<?xml version="1.0" encoding="utf-8"?>
<!-- Generator: Adobe Illustrator 24.1.1, SVG Export Plug-In . SVG Version: 6.00 Build 0)  -->
<svg version="1.1" id="Layer_1" xmlns="http://www.w3.org/2000/svg" xmlns:xlink="http://www.w3.org/1999/xlink" x="0px" y="0px"
	 viewBox="0 0 600 600" style="enable-background:new 0 0 600 600;" xml:space="preserve">
<style type="text/css">
	.st0{opacity:9.000000e-02;}
	.st1{fill:#FFFFFF;}
</style>
<g transform="translate(300,300)" class="st0">
	<path class="st1" d="M208.6-218.3c10.3,42.1-30.3,111.4-10.7,155.7c19.5,44.3,99.4,63.6,91.6,69.3c-7.6,5.7-103.2-2.3-148.5,5.7
		C95.6,20.2,100.3,44,74.8,105C49.2,165.8-6.7,263.9-64.1,286.6c-57.4,22.7-116.4-29.9-164.5-84.3c-48.3-54.6-85.9-111.1-41.8-150.7
		S-101-10.4-68.2-66.5c32.8-56.2-27.1-145.9-18.7-188.8c8.4-42.9,85.1-38.9,154.2-29.6C136.6-275.4,198.1-260.4,208.6-218.3z"/>
</g>
</svg>
