<?xml version="1.0" encoding="utf-8"?>
<!-- Generator: Adobe Illustrator 24.1.1, SVG Export Plug-In . SVG Version: 6.00 Build 0)  -->
<svg version="1.1" xmlns="http://www.w3.org/2000/svg" xmlns:xlink="http://www.w3.org/1999/xlink" x="0px" y="0px"
	 viewBox="0 0 100 100" style="enable-background:new 0 0 100 100;" xml:space="preserve">
<style type="text/css">
	.st0{fill:#FFFFFF;}
	.st1{fill:#5CB8E9;}
</style>
<g id="Layer_2">
	<path class="st0" d="M91.7,100H8.3C3.7,100,0,96.3,0,91.7V8.3C0,3.7,3.7,0,8.3,0h83.4c4.6,0,8.3,3.7,8.3,8.3v83.4
		C100,96.3,96.3,100,91.7,100z"/>
</g>
<g id="Layer_1">
	<g>
		<g>
			<path class="st1" d="M23.5,7.6h29.9c16.4,0,25.3,8.7,25.3,21.1c0,10.2-6.1,16.8-13.3,18.8c6.1,1.7,16.3,7.7,16.3,21.2
				c0,17.2-12.9,24.8-27.9,24.8H23.5V7.6z M51.2,44.5c14.8,0,20.5-5.5,20.5-15.5c0-8.5-5.9-15.3-17.9-15.3H30v30.8H51.2z M30,87.3
				h24.2c11.3,0,20.7-5.6,20.7-18.3c0-10.9-7-18.4-24.3-18.4H30V87.3z"/>
		</g>
	</g>
</g>
</svg>
